<?xml version="1.0" encoding="UTF-8" standalone="no"?>
<svg
   width="31.995529"
   height="29.000002"
   viewBox="0 0 31.995529 29.000002"
   fill="none"
   version="1.1"
   id="svg7"
   sodipodi:docname="Button copy.svg"
   xmlns:inkscape="http://www.inkscape.org/namespaces/inkscape"
   xmlns:sodipodi="http://sodipodi.sourceforge.net/DTD/sodipodi-0.dtd"
   xmlns="http://www.w3.org/2000/svg"
   xmlns:svg="http://www.w3.org/2000/svg">
  <defs
     id="defs11" />
  <sodipodi:namedview
     id="namedview9"
     pagecolor="#ffffff"
     bordercolor="#000000"
     borderopacity="0.25"
     inkscape:showpageshadow="2"
     inkscape:pageopacity="0.0"
     inkscape:pagecheckerboard="0"
     inkscape:deskcolor="#d1d1d1"
     showgrid="false" />
  <path
     id="Forma 1_3"
     d="m 26.201,29 c -0.648,-0.0262 -1.259,-0.3052 -1.704,-0.7773 -0.444,-0.4721 -0.686,-1.0995 -0.673,-1.7477 0.014,-0.6481 0.28,-1.2653 0.743,-1.7191 0.463,-0.4537 1.086,-0.7079 1.734,-0.7079 0.648,0 1.271,0.2542 1.734,0.7079 0.463,0.4538 0.729,1.071 0.742,1.7191 0.014,0.6482 -0.228,1.2756 -0.672,1.7477 C 27.66,28.6948 27.049,28.9738 26.401,29 Z M 6.753,26.32 c 0,-0.53 0.157,-1.0482 0.452,-1.4889 0.294,-0.4407 0.713,-0.7842 1.202,-0.9871 0.49,-0.2028 1.029,-0.2559 1.549,-0.1525 0.52,0.1034 0.997,0.3587 1.372,0.7335 0.375,0.3748 0.63,0.8523 0.734,1.3722 0.103,0.5198 0.05,1.0587 -0.153,1.5484 -0.203,0.4897 -0.546,0.9083 -0.987,1.2027 C 10.481,28.8428 9.963,29 9.433,29 9.081,29.0003 8.732,28.9311 8.407,28.7966 8.081,28.662 7.786,28.4646 7.537,28.2158 7.288,27.9669 7.09,27.6713 6.955,27.3461 6.82,27.0208 6.751,26.6721 6.751,26.32 Z m 3.8,-5.634 C 10.294,20.6868 10.041,20.6024 9.834,20.4457 9.627,20.2891 9.478,20.0689 9.408,19.819 L 4.575,2.36401 H 1.182 C 0.869,2.36401 0.568,2.23947 0.346,2.01781 0.125,1.79614 0,1.49549 0,1.18201 0,0.868519 0.125,0.567873 0.346,0.346205 0.568,0.124537 0.869,5.8126776e-6 1.182,5.8126776e-6 H 5.463 C 5.723,-8.0736e-4 5.975,0.0837201 6.182,0.240568 6.388,0.397416 6.538,0.617884 6.607,0.868006 L 11.44,18.323 H 24.618 L 29.001,8.27501 h -14.6 C 14.243,8.27961 14.085,8.25242 13.938,8.19507 13.79,8.13771 13.656,8.05134 13.542,7.94108 13.429,7.83082 13.339,7.69891 13.277,7.55315 13.215,7.40739 13.184,7.25075 13.184,7.0925 13.184,6.93426 13.215,6.77762 13.277,6.63186 13.339,6.4861 13.429,6.35419 13.542,6.24393 13.656,6.13367 13.79,6.0473 13.938,5.98994 14.085,5.93259 14.243,5.90541 14.401,5.91001 h 16.413 c 0.196,-5e-5 0.388,0.04865 0.56,0.14171 0.173,0.09306 0.319,0.22754 0.426,0.39129 0.108,0.16428 0.173,0.35268 0.191,0.54844 C 32.008,7.18721 31.977,7.38424 31.9,7.565 l -5.405,12.412 c -0.092,0.2106 -0.244,0.3898 -0.437,0.5157 -0.192,0.1259 -0.417,0.1931 -0.647,0.1933 z"
     fill="#e8e8e8" />
</svg>
